#define dragon_width 320
#define dragon_height 200
static char dragon_bits[] = {
   0xFF,0xFF,0xFF,0xFF,0xFF,0xFF,0xFF,0xFF,0xFF,0xFF,0xFF,0xFF,
   0xFF,0xFF,0xFF,0xFF,0xFF,0xFF,0xFF,0xFF,0xFF,0xFF,0xFF,0xFF,
   0xFF,0xFF,0xFF,0xFF,0xFF,0xFF,0xFF,0xFF,0xFF,0xFF,0xFF,0xFF,
   0xFF,0xFF,0xFF,0xFF,0xFF,0xFF,0xFF,0xFF,0xFF,0xFF,0xFF,0xFF,
   0xFF,0xFF,0xFF,0xFF,0xFF,0xFF,0xFF,0xFF,0xFF,0xFF,0xFF,0xFF,
   0xFF,0xFF,0xFF,0xFE,0xFF,0xFF,0xFF,0xFF,0xFF,0xFF,0xFF,0xFF,
   0xFF,0xFF,0xFF,0xFF,0xFF,0xFF,0xFF,0xFF,0xFF,0xFF,0xFF,0xFF,
   0xFF,0xFF,0xFF,0xFF,0xFF,0xFF,0xFF,0xFF,0xFF,0xFF,0xFF,0xFF,
   0xFF,0xFF,0xFF,0xFF,0xFF,0xFF,0xFF,0xFF,0xFF,0xFF,0xFF,0xFF,
   0xFF,0xFF,0xFF,0xFF,0xFF,0xFF,0xFF,0xFF,0xFF,0xFF,0xFF,0xFF,
   0xFF,0xFF,0xFF,0xFF,0xFF,0xFF,0xFF,0xFF,0xFF,0xFF,0xFF,0xFF,
   0xFF,0xFF,0xFF,0xFF,0xFF,0xFF,0xFF,0xFF,0xFF,0xFF,0xBF,0xFF,
   0xFF,0xFF,0xFF,0xFF,0xFF,0xFF,0xFF,0xFF,0xFF,0xFF,0xFF,0xFF,
   0xFF,0xFF,0xFF,0xFF,0xFF,0xFF,0xFF,0xFF,0xFF,0xFF,0xFF,0xFF,
   0xFF,0xFF,0xFF,0xFF,0xFF,0xFF,0xFF,0xFF,0xFF,0xFF,0xFF,0xFF,
   0xFF,0xFF,0xF7,0xF7,0xFF,0xFF,0xFF,0xFF,0xFF,0xFF,0xFF,0xFF,
   0xFF,0xFF,0xFF,0xFF,0xFF,0xFF,0xFF,0xFF,0xFF,0xFF,0xFF,0xFF,
   0xFF,0xFF,0xFF,0xFF,0xFF,0xFF,0xFF,0xFF,0xFF,0xFF,0xFF,0xFF,
   0xFF,0xFF,0xFF,0xFF,0xFF,0xFF,0xFD,0xFF,0xFF,0xFF,0xFF,0xFF,
   0xFF,0xFF,0xFF,0xFF,0xFF,0xFF,0xFF,0xFF,0xFF,0xFF,0xFF,0xFF,
   0xFF,0xFF,0xFF,0xFF,0xFF,0xFF,0xFF,0xFF,0xFF,0xFF,0xFF,0xFF,
   0xFF,0xFF,0xFF,0xFF,0xFF,0xFF,0xFF,0xFF,0xFF,0x7F,0xFF,0xFF,
   0xFF,0xFF,0xFF,0xFF,0xFF,0xFF,0xFF,0xFF,0xFF,0xFF,0xFF,0xFF,
   0xFF,0xFF,0xFF,0xFF,0xFF,0xFF,0xFF,0xFF,0xFF,0xFF,0xFF,0xFF,
   0xFF,0xFF,0xFF,0xFF,0xFF,0xFF,0xFF,0xFF,0xFF,0xFF,0xFF,0xFF,
   0xFF,0xFF,0xFF,0xFF,0xFB,0xFF,0xFF,0xFF,0xFF,0xFF,0xFF,0xFF,
   0xFF,0xFF,0xFF,0xFF,0xFF,0xFF,0xFF,0xFF,0xFF,0xFF,0xFF,0xFF,
   0xFF,0xFF,0xFF,0xFF,0xFF,0xFF,0xFF,0xFF,0xFF,0xFF,0xFF,0xFF,
   0xFF,0xFF,0xFF,0xFF,0xFF,0xFF,0xFF,0xFF,0xFF,0xFF,0xFF,0xFF,
   0xFF,0xFF,0xFF,0xFF,0xFF,0xFF,0xFF,0xFF,0xFF,0xFF,0xFF,0xFF,
   0xFF,0xFF,0xFF,0xFF,0xFF,0xFF,0xFF,0xFF,0xFF,0xFF,0xFF,0xFF,
   0xFF,0xFF,0xFF,0xFF,0xFF,0xFF,0xFF,0xFF,0xFF,0xFB,0xFF,0xFF,
   0xFF,0xFF,0xFF,0xFF,0xFF,0xFF,0xFF,0xFF,0xFF,0xFF,0xFF,0xFF,
   0xFF,0xFF,0xFF,0xFF,0xFF,0xFF,0xFF,0xFF,0xFF,0xFF,0xFF,0xFF,
   0xFF,0xFF,0xFF,0xFF,0xFF,0xFF,0xFF,0xFF,0xFF,0xFF,0xFF,0xFF,
   0xFF,0xFF,0xFF,0xFF,0xFF,0xFF,0xFF,0xFF,0xFF,0xFF,0xFF,0xFF,
   0xFF,0xFF,0xFF,0xFF,0xFF,0xFF,0xFF,0xFF,0xFF,0xFF,0xFF,0xFF,
   0xFF,0xFF,0xFF,0xFF,0xFF,0xFF,0xFF,0xFF,0xFF,0xFF,0xFF,0xFF,
   0xFF,0xFF,0xFF,0xFF,0x7F,0xDD,0xFF,0xFF,0xFF,0xFF,0xFF,0xFF,
   0xFF,0xFF,0xFF,0xFF,0xFF,0xFF,0xFF,0xFF,0xFF,0xFF,0xFF,0xFF,
   0xFF,0xFF,0xFF,0xFF,0xFF,0xFF,0xFF,0xFF,0xFF,0xFF,0xFF,0xFF,
   0xFF,0xFF,0xFF,0xFF,0xFF,0xFF,0xFF,0xFF,0xFF,0xFF,0xFF,0xFF,
   0xFF,0xFF,0xFF,0xFF,0xFF,0xFF,0xFF,0xFF,0xFF,0xFF,0xFF,0xFF,
   0xFF,0xFF,0xFF,0xFF,0xFF,0xFF,0xFF,0xFF,0xFF,0xFF,0xFF,0xFF,
   0xFF,0xFF,0xFF,0xFF,0xFF,0xFF,0xFF,0xFF,0xFF,0xFF,0xFF,0xFF,
   0xEF,0xFF,0xFB,0xFF,0xFF,0xFF,0xFF,0xFF,0xFF,0xFF,0xFF,0xFF,
   0xFF,0xFF,0xFF,0xFF,0xFF,0xFF,0xFF,0xFF,0xFF,0xFF,0xFF,0xFF,
   0xFF,0xFF,0xFF,0xFF,0xFF,0xFF,0xFF,0xFF,0xFF,0xFF,0xFF,0xFF,
   0xFF,0xFF,0xFF,0xFF,0xBB,0xFF,0xFF,0xFF,0xFF,0xFF,0xFF,0xFF,
   0xFF,0xFF,0xFF,0xFF,0xFF,0xFF,0xFF,0xFF,0xFF,0xFF,0xFF,0xFF,
   0xFF,0xFF,0xFF,0xFF,0xFF,0xFF,0xFF,0xFF,0xFF,0xFF,0xFF,0xFF,
   0xFF,0xFF,0xFF,0xFF,0xFF,0xFF,0xFF,0xFF,0xFF,0xFF,0xFF,0xFF,
   0xFF,0xFF,0xFF,0xFF,0xFF,0xFF,0xFF,0xFF,0xFF,0xFF,0xFF,0xFF,
   0xFF,0xFF,0xFF,0xFF,0xFF,0xFF,0xFF,0xFF,0xFF,0xFF,0xFF,0xFF,
   0xFF,0xFF,0xFF,0xFF,0xFF,0xFF,0xFF,0xFF,0xFF,0xFF,0xFF,0x7F,
   0xFF,0xFF,0xFF,0xFF,0xFF,0xFF,0xFF,0xD7,0x5A,0x5B,0xFB,0xFF,
   0xFF,0xFF,0xFF,0xFF,0xFF,0xFF,0xFF,0xFF,0xFF,0xFF,0xFF,0xFF,
   0xFF,0xFF,0xFF,0xFF,0xFF,0xFF,0xFF,0xFF,0xFF,0xFF,0xFF,0xFF,
   0xFF,0xFF,0xBF,0xBF,0xFF,0xFF,0xFF,0xFF,0xFF,0xAD,0x6A,0xBB,
   0xF7,0xEE,0x6E,0xDB,0xFF,0xFF,0xFF,0xFF,0xFF,0xFF,0xFF,0xFF,
   0xFF,0xFF,0xFF,0xFF,0xFF,0xFF,0xFF,0xFF,0xFF,0xFF,0xFF,0xFF,
   0xFF,0xFF,0xFF,0xFF,0xFF,0xFF,0x7F,0xFF,0xFF,0xFF,0xBF,0x55,
   0xDB,0xFA,0xDF,0xEE,0xDE,0xFB,0xDB,0x6E,0xF5,0xFF,0xFF,0xFF,
   0xFF,0xFF,0xFF,0xFF,0xFF,0xFF,0xFF,0xFF,0xFF,0xFF,0xFF,0xFF,
   0xFF,0xFF,0xFF,0xFF,0xFF,0xFF,0xFF,0xFF,0xFF,0xFF,0xFF,0xDF,
   0xB7,0xD5,0xF6,0xFE,0x76,0x5F,0x75,0xB7,0x77,0x4B,0xBF,0xFB,
   0xFF,0xFF,0xFF,0xFF,0xF7,0xFF,0xFF,0xFF,0xFF,0xFF,0xFF,0xFF,
   0xFF,0xFF,0xFF,0xFF,0xFF,0xFF,0xFF,0xFF,0xFF,0xFF,0xFF,0xFF,
   0xFF,0xFF,0x7F,0xFE,0x7E,0xBF,0x5B,0xAB,0xDF,0xFF,0xDE,0xDB,
   0xAF,0xB6,0xED,0x5F,0xFB,0xFF,0xFF,0xFF,0xFF,0xFF,0xFF,0xFF,
   0xFF,0xFF,0xFF,0xFF,0xFF,0xFF,0xFF,0xFF,0xFF,0xFF,0xFF,0xFF,
   0xFF,0xFF,0xFF,0xFF,0xFF,0xFF,0xFF,0xB7,0xD5,0xF5,0xEE,0xFF,
   0xFB,0xFB,0xFB,0x6B,0xF5,0xF6,0xAB,0x6A,0xEF,0xFF,0xFF,0xFF,
   0xFF,0xFF,0xFF,0xFF,0xFF,0xFF,0xFF,0xFF,0xFF,0xFF,0xFF,0xFF,
   0xFF,0xFF,0xFF,0xFF,0xFF,0xFF,0xFF,0xFF,0xFF,0xFF,0xFF,0xEF,
   0x7F,0xFF,0xFF,0xBF,0xDD,0xDD,0xDF,0xFE,0xBB,0xBB,0x56,0x5F,
   0xDB,0xFF,0xFF,0x7F,0xFF,0xFF,0xFF,0xFF,0xFF,0xFF,0xFF,0xFF,
   0xFF,0xFF,0xFF,0xFF,0xFF,0xFF,0xFF,0xFF,0xFF,0xFF,0xFF,0xFF,
   0xFF,0xFF,0xFF,0xF7,0xFD,0xFF,0xFF,0xFB,0xFF,0xFF,0xFD,0xBD,
   0xEA,0xBE,0xDF,0xFD,0xBE,0xF7,0x6D,0xFB,0xFF,0xFF,0xFF,0xFF,
   0xFF,0xFF,0xFF,0xFF,0xFD,0xFF,0xFF,0xFF,0xFF,0xFF,0xFF,0xFF,
   0xFF,0xFF,0xFF,0xFF,0xFF,0xFF,0xFF,0xFD,0xDF,0xFF,0xFF,0xFF,
   0xFF,0x7F,0xF7,0xF7,0x37,0xD3,0xAA,0xAB,0x77,0xFF,0xFF,0xFF,
   0xFF,0xFF,0xFF,0xFF,0xFF,0xFF,0xFF,0xFF,0xFF,0xFF,0xFF,0xFF,
   0xFF,0xFF,0xFF,0xFF,0xFF,0xFF,0xFF,0xFF,0xFF,0xFF,0xFF,0xFF,
   0xFF,0xD6,0xFE,0xFF,0xFF,0xF7,0xBF,0xBB,0xDF,0xBE,0x5D,0x5D,
   0xED,0x7D,0xDF,0xDF,0xFF,0xFF,0xFF,0xFF,0xFF,0xFF,0xFF,0xFF,
   0xFF,0xFF,0xFF,0xFF,0xFF,0xFF,0xFF,0xFF,0xFF,0xFF,0xFF,0xFF,
   0xFF,0xFF,0xFF,0xEF,0xFF,0x7F,0xDB,0xFE,0xFF,0xFF,0xFB,0xFE,
   0xBA,0x77,0xF7,0x76,0x7B,0xDF,0xFB,0xFE,0xFF,0xFF,0xFF,0xFF,
   0xFF,0xFF,0xFF,0xFF,0xFF,0xFF,0xFF,0xFF,0xFF,0xFF,0xFF,0xFF,
   0xFF,0xFF,0xFF,0xFF,0xFF,0xFF,0xFF,0xBF,0xDF,0xF7,0xF7,0xF7,
   0xFF,0xBE,0xFF,0xFF,0x6F,0xAF,0xAB,0xDA,0xDE,0xFE,0xBF,0xFF,
   0xFF,0xFF,0xFF,0xFF,0xFF,0xFF,0xFF,0xFF,0xFF,0xFF,0xFF,0xFF,
   0xFF,0xFF,0xFF,0xFF,0xFF,0xFF,0xFF,0xFF,0xFF,0xFF,0xFF,0xFF,
   0xFB,0xDF,0x5E,0xBD,0xFF,0xFF,0xDF,0x6F,0xDF,0xFD,0x7E,0x7B,
   0xF7,0xF5,0xF6,0xFF,0xFF,0xFF,0xFF,0xFF,0xFF,0xFF,0x7F,0xFF,
   0xFF,0xFD,0xFF,0xFF,0xFF,0xFF,0xFF,0xFF,0xF7,0xFF,0x7F,0xFF,
   0xFF,0xFF,0xFF,0xB7,0xFF,0xF7,0xFB,0xF7,0xF6,0xFF,0xFF,0xFF,
   0xFF,0xB7,0xD5,0xD6,0xAD,0xDB,0xFF,0xFF,0xFF,0xFF,0xFF,0xFF,
   0xFF,0xFF,0xFF,0xFF,0xFF,0xFF,0xFF,0xFF,0xFF,0xFF,0xFF,0xFF,
   0xFB,0xFF,0xFF,0xFF,0xFF,0xFF,0xFF,0xFF,0xFE,0x7F,0xEF,0xDD,
   0xFF,0xFF,0xFF,0xFF,0x7B,0xDF,0xBF,0xBA,0xBE,0x6E,0xFD,0xFF,
   0xFF,0xFF,0xFF,0xFF,0xFF,0xFF,0xFF,0xFF,0xFF,0xBF,0xFF,0xFF,
   0xFF,0xFF,0xFF,0xFF,0xFE,0xFF,0x7F,0xFF,0xFF,0xFF,0xFF,0xBF,
   0xFF,0xDD,0x7F,0x7F,0xD5,0xFF,0xFF,0xFB,0xFF,0x7B,0xAB,0xEF,
   0xF5,0xDB,0xFF,0xFF,0xFF,0xFF,0xFF,0xFF,0xFF,0xFF,0xFF,0xFF,
   0xDF,0xFF,0xFF,0xFF,0xFF,0xFF,0xFF,0x7F,0xFF,0xFF,0xFF,0xFF,
   0xFF,0xFF,0xFF,0xFF,0xFD,0xFF,0xDD,0xEB,0x7F,0xFD,0xFF,0xFF,
   0x7F,0xFF,0xFF,0xFA,0xD7,0x7E,0xFF,0xFF,0xFF,0xFF,0xFF,0xFF,
   0xFF,0xFF,0xBF,0xFF,0xFF,0xFF,0xFF,0xFF,0xFF,0xFF,0xFF,0xBF,
   0xFF,0xFF,0xBF,0xFF,0xFF,0xFF,0xFF,0x7F,0xFF,0xBF,0xFF,0xBF,
   0xFA,0xDB,0xFF,0xFF,0xFF,0xEF,0xAD,0xB7,0xBC,0xF5,0xFF,0xFF,
   0xFF,0xFF,0xFF,0xFF,0xFF,0xFF,0xFF,0xFF,0xFF,0xFB,0xFF,0xFF,
   0xFB,0xFF,0xFF,0xDF,0xFF,0xFF,0x7F,0xFF,0xFF,0xFF,0xFF,0xFF,
   0xF7,0xFF,0xED,0xED,0xAF,0x7E,0xFF,0xFF,0xFE,0xFB,0xFF,0xB6,
   0xAF,0xBF,0xFF,0xFF,0xFF,0xFF,0xFF,0xFF,0xFF,0xFF,0xDF,0xFF,
   0xFF,0xFF,0xFF,0xFF,0xFF,0xFF,0xFF,0xDF,0xFF,0xFF,0xFF,0xFD,
   0xFF,0xFF,0xFF,0xFF,0xFE,0xEF,0xFF,0x7E,0xDB,0xEA,0xDD,0xFF,
   0xFF,0x7F,0xD7,0xBD,0x76,0xED,0xFF,0xFF,0xFF,0xFF,0xFF,0xFF,
   0xFF,0xFF,0xFF,0xFF,0xF7,0xFE,0xFF,0xFF,0xFF,0xFF,0xFF,0xEF,
   0xFF,0xFF,0xBF,0xFF,0xFF,0xFF,0xFF,0xBF,0xFB,0xFF,0xDF,0x77,
   0xB7,0xDF,0xFB,0xFF,0x7F,0xFF,0x7F,0xF7,0xAB,0xB7,0xFF,0xFF,
   0xFF,0xFF,0xFF,0xFF,0xFF,0xFF,0xF7,0xFF,0xFF,0xDF,0xFF,0xFF,
   0xFE,0xFF,0xFF,0xFF,0xFF,0xFF,0xDF,0xFF,0xFF,0xFF,0xFF,0xFF,
   0xDF,0x7F,0xF7,0xDF,0xDD,0x7A,0xD7,0xFE,0xFF,0xFF,0xDD,0xBF,
   0xFE,0xEE,0x7F,0xFF,0xFF,0xFF,0xFF,0xFF,0xFF,0xFF,0xFF,0xFF,
   0xFF,0xFF,0xDF,0xEF,0xFF,0xFF,0xFF,0xF7,0xFF,0xFF,0xFF,0xFF,
   0xFF,0xFF,0xFF,0xFF,0xFB,0xF7,0x7F,0xFB,0xF7,0xEF,0x7E,0xFF,
   0xFF,0xBF,0xFF,0xFF,0xDB,0xFB,0xFF,0xFF,0xFF,0xFF,0xFF,0xFF,
   0xFF,0xFF,0xFF,0xFF,0xFF,0xFE,0xFF,0xFF,0xFF,0xFF,0xFF,0xFB,
   0xFF,0xFF,0xAF,0xFF,0xFF,0xF7,0xFF,0x7F,0xDF,0xFF,0xFF,0x6F,
   0x2D,0xBD,0xF5,0xFB,0xFF,0xFF,0x6F,0x5B,0xED,0x5E,0xDF,0xFF,
   0xFF,0xF7,0xFE,0xFF,0xFF,0xFF,0xFB,0xFF,0xBB,0xF7,0xFF,0xFF,
   0xFF,0xFF,0xFF,0xFF,0xFF,0xFF,0xEF,0xFF,0xFF,0xFF,0xFF,0xFF,
   0xF7,0xFF,0xDF,0xF6,0xFF,0x77,0xAF,0xED,0xFF,0xFF,0xFF,0xFF,
   0xF7,0x6F,0xF7,0xFF,0xFF,0xFE,0xFF,0xFF,0xEF,0xFF,0xFE,0xFF,
   0xFF,0xFF,0xFD,0xF7,0xFF,0xFF,0xFF,0xDD,0xFD,0xFF,0xFB,0xFF,
   0xFF,0xFF,0xFF,0xFF,0xBF,0xFF,0xFB,0xFF,0xB6,0xDD,0x7D,0xB7,
   0xFF,0xFF,0xFD,0xBF,0x5E,0xBF,0xF6,0xFF,0xFF,0xFF,0xFF,0xFF,
   0xFF,0xFF,0xFF,0xFF,0xFF,0xFF,0xFF,0xFF,0xFE,0xFF,0xFF,0xF7,
   0xFB,0xFF,0xF6,0xFF,0xFF,0xFF,0xFF,0xFF,0xEF,0xFE,0xFE,0xDD,
   0xDB,0xF7,0xF7,0xFF,0xFF,0xBF,0xEF,0xED,0xF5,0xF5,0xFC,0xFF,
   0xBF,0xFF,0xFF,0xFF,0xFF,0xDF,0xFF,0xFE,0xBE,0xFD,0xFF,0xFF,
   0xFF,0xFF,0xFF,0xFF,0xFF,0xFF,0xFD,0xFF,0xFF,0xFF,0xFF,0xFF,
   0xFD,0xFF,0x7F,0xBF,0x7E,0x5D,0xAD,0xAD,0xFA,0xFF,0xFF,0xFF,
   0xFF,0xDF,0xF9,0xFF,0xFF,0xFF,0xFF,0xFF,0xFF,0xFF,0xFF,0xFF,
   0xEF,0xFF,0xFD,0xFD,0xFF,0xFF,0xFF,0xBD,0x7F,0xDF,0xFE,0xDF,
   0xFF,0xFF,0xFE,0xFF,0xDF,0xFF,0xDF,0xEB,0xB7,0xF7,0xFF,0xF6,
   0xEF,0xFF,0x7B,0xFF,0x6D,0xBF,0xFB,0xFF,0xFF,0xFF,0xFF,0xFF,
   0xEF,0xF7,0xFF,0xFF,0xFF,0xFF,0x7F,0xBF,0xFF,0xFF,0xFF,0xDF,
   0x9F,0xF7,0xBF,0xFF,0xBF,0xFF,0xFF,0xFF,0x7F,0xFF,0xFF,0xFF,
   0xFD,0x5E,0xD5,0xBB,0xFD,0xFF,0xFF,0x77,0xFF,0x6D,0xFF,0xFF,
   0xFF,0xFF,0xFF,0xFF,0xFF,0xFF,0xFF,0xFF,0xBF,0xFF,0xFF,0xFF,
   0xFF,0xFF,0x7F,0xEF,0x6B,0xFF,0xDF,0xFF,0xFF,0xFB,0xFF,0xFF,
   0xFF,0xFD,0xF7,0xDD,0xB7,0xFB,0xBF,0x7A,0xAF,0xFD,0xFF,0xFD,
   0xDF,0xFF,0xEA,0xFF,0xFF,0xFF,0xFF,0xFF,0xFF,0xFF,0xFF,0xFF,
   0xFF,0xBF,0xFF,0xFF,0xFF,0xFF,0x7F,0xFF,0xFD,0xFF,0xEF,0xFF,
   0xFF,0xFF,0xFF,0xFF,0xBF,0xFF,0xFE,0x7F,0xFD,0x56,0xF5,0xEF,
   0x7D,0xFF,0xFD,0xDF,0xF5,0xF7,0xFF,0xFF,0xFF,0xFF,0xFF,0xFF,
   0xEF,0xFF,0xF7,0xFF,0xFF,0xFF,0xFF,0xEF,0xFF,0xFF,0xBF,0xFB,
   0xEF,0xFF,0xFF,0xFF,0xFF,0xBF,0xFF,0xFF,0xBF,0xFD,0xFF,0xD6,
   0xAF,0xFF,0xAF,0xDA,0xF7,0xFD,0x7F,0xFF,0x7F,0xBF,0xFF,0xFF,
   0xFF,0xFF,0xFF,0xFF,0xFF,0xFD,0xFF,0xFE,0xFF,0xEF,0xDF,0xFB,
   0xFF,0xFF,0xDF,0xB7,0xFA,0xFE,0xFF,0xFF,0xFE,0xFF,0xFF,0xFF,
   0xFB,0xFF,0xFF,0xFF,0xF7,0x6A,0xFD,0x77,0xDD,0xF7,0xFF,0xBF,
   0xFF,0xFF,0xFF,0xDF,0xFF,0xFF,0xFF,0xFF,0xFF,0xFF,0xFE,0xEF,
   0xFF,0xFF,0xF7,0xFF,0xFF,0xFF,0xFF,0xFE,0xDF,0xFF,0xFF,0xEF,
   0xF7,0xFF,0xFF,0xFF,0xBF,0xFD,0xFF,0xBF,0xBD,0xDF,0xAB,0xDD,
   0x7D,0xF5,0xFF,0xF7,0xFD,0xF7,0xFF,0xF7,0xFF,0xFE,0xF7,0xFF,
   0xFF,0xFF,0xFF,0xFF,0xFE,0xFF,0xFF,0xFE,0xFF,0xFF,0xDF,0xBB,
   0xFA,0x77,0xFA,0xFF,0xDD,0xFF,0xFB,0xFF,0xFF,0xBF,0xEF,0xEF,
   0xEF,0xBA,0x7E,0x7F,0xD7,0xEF,0xFF,0xFF,0xFF,0xFD,0xFF,0xFF,
   0xFF,0xBF,0xFF,0xFF,0xEF,0xF7,0xDF,0xFF,0xFF,0xFF,0xFF,0xFF,
   0xFF,0xFF,0xFF,0xEF,0xFF,0xFF,0xFF,0xFD,0x7F,0xFF,0xFF,0xFF,
   0x7F,0xFB,0xFF,0xFD,0x76,0xEF,0xEB,0xD5,0xFE,0xDE,0xFF,0xFF,
   0xDE,0xFF,0xFF,0xFF,0xFF,0xFF,0xFF,0xFF,0xFF,0x7F,0xF7,0xFF,
   0xFF,0xFF,0xFF,0xFF,0xFF,0xF7,0x7F,0xBD,0xEE,0x5A,0xF7,0x6F,
   0xEF,0xFD,0xFF,0xFF,0x6F,0xEF,0xFF,0xDF,0xDF,0xBB,0xBE,0xFE,
   0xD5,0xBB,0xFF,0xFF,0xFF,0xFF,0xFB,0xFF,0xFF,0xFF,0xFF,0xFF,
   0xFF,0xFD,0xFF,0xFF,0xFF,0xFF,0xFF,0xFF,0xFF,0xF7,0xFF,0xEF,
   0xBB,0xAF,0xAE,0xEF,0x75,0xFF,0xBF,0xFF,0xFF,0xFD,0xFF,0xF7,
   0xF6,0xEE,0x77,0x55,0xBF,0xB6,0xFE,0xF7,0xBF,0xFF,0xBF,0xFF,
   0xFF,0xFF,0xFF,0xFF,0xFF,0xFF,0xFF,0xFF,0xFE,0xFF,0xFF,0xFF,
   0xFF,0xF7,0xDF,0xBF,0xEE,0x6E,0xDB,0x7D,0xEF,0xEF,0xFF,0xFF,
   0xDF,0xFF,0xF7,0x7E,0xDF,0xFB,0xEE,0xFF,0xED,0xDF,0xFF,0xFF,
   0xFF,0xFF,0xFF,0xEE,0xFF,0xFF,0xFF,0xFF,0xEF,0xFF,0xFF,0xFF,
   0xFF,0xFF,0xFF,0xFF,0xFF,0xF3,0xFF,0xEF,0xFB,0xBD,0xFD,0xCD,
   0xBC,0xFB,0xFF,0xFF,0xFF,0xF6,0xFF,0xDF,0x77,0xAF,0xAA,0xAA,
   0x7B,0xF5,0xFE,0xFF,0xFB,0xFF,0xEB,0xFF,0xFF,0xFF,0xFF,0xFF,
   0xFF,0xEF,0xF6,0xDF,0xFF,0xFF,0xFF,0xFF,0xFF,0xD7,0xFF,0xBE,
   0x5F,0x1B,0x57,0x7F,0xF7,0xBF,0xFF,0xFF,0xDF,0xFF,0xFF,0xED,
   0xFD,0xFA,0xFF,0x7F,0xEF,0xAF,0xFD,0x7F,0xFF,0xFF,0xBF,0xFD,
   0xBF,0xFB,0xFF,0xFF,0xFF,0xFB,0xFF,0xFF,0xFF,0xFF,0xFF,0xFF,
   0xFF,0xE7,0xD7,0xFE,0xB5,0x85,0xBB,0xFF,0x5C,0xFB,0xFE,0xFF,
   0xFF,0xED,0xFF,0xFF,0xB7,0x4F,0x55,0xD5,0x5A,0x6D,0xFF,0xFF,
   0xFF,0xFF,0xEB,0xFF,0xFF,0xFF,0xFF,0xFF,0xEF,0xFF,0xFF,0xFF,
   0xFF,0xFF,0xFE,0xFF,0xFF,0xEF,0xEF,0x6C,0x6D,0xC9,0xED,0xFF,
   0xDF,0xFF,0xFF,0xFD,0xFF,0xFB,0xFF,0x7F,0xFF,0xBD,0xFF,0xBF,
   0xF7,0x5B,0xF5,0xFF,0xFF,0xFF,0x6F,0xFF,0xFF,0xFF,0xFF,0xFF,
   0xFF,0xFF,0xFF,0x7F,0xFF,0xFF,0xFF,0xFF,0xFF,0x8F,0x77,0xBF,
   0x2B,0x82,0x7E,0xFF,0xF7,0xFE,0xFF,0xFF,0xBF,0xBD,0xBF,0xEF,
   0x55,0xEB,0x55,0xD5,0x5E,0xDF,0xFE,0xFF,0xFF,0xFF,0xDF,0xFF,
   0xFF,0xFF,0xFF,0xFF,0xFF,0x7F,0xF7,0xF7,0xFF,0xFE,0xFF,0xFF,
   0xFF,0xDF,0xF5,0x57,0x0A,0x60,0xAD,0xFF,0xBF,0xFC,0xFF,0xFF,
   0xFF,0xEF,0xFF,0x7F,0xFF,0xBD,0xFF,0xFB,0xF5,0xAA,0xF5,0xFF,
   0xFE,0xFF,0xFF,0xFF,0xFF,0xFD,0xFF,0xFF,0xFF,0xFD,0xFF,0xFD,
   0xFF,0xBF,0xFF,0xFF,0xFF,0xFF,0xFE,0x96,0x00,0x98,0xDB,0xFF,
   0xEF,0xDF,0xFE,0xEF,0x7F,0xFB,0xFF,0xFB,0x6D,0xEF,0xAA,0x5E,
   0xAF,0x3F,0xED,0xFF,0xFF,0xFF,0xFF,0xFF,0xFF,0xFF,0xFF,0xFF,
   0xEF,0xEF,0xFF,0xFF,0xFF,0xFF,0xFF,0xFE,0xFF,0xFF,0xAF,0x52,
   0x01,0xC0,0xF6,0xFF,0x3F,0xFE,0xF5,0xFF,0xFF,0xFF,0xFF,0xBF,
   0xDF,0xBD,0xFF,0xF5,0xFD,0xAA,0xBD,0xFF,0xFF,0xFF,0xFF,0xFF,
   0xFF,0xFF,0xFF,0xFF,0xFF,0xFF,0xFF,0xFF,0xEF,0xFF,0xFF,0xFF,
   0xFF,0x7F,0xB5,0x04,0x00,0x98,0xFD,0xFF,0x97,0xFA,0xFF,0xFF,
   0x7F,0xDF,0xFF,0xED,0x7B,0xF7,0xAA,0x5E,0xAB,0x5F,0xE5,0xFF,
   0xFF,0xFF,0xFF,0xFF,0xFF,0xFF,0xFF,0xFF,0xFF,0x7F,0xFF,0xFF,
   0xFE,0xFF,0xF7,0xFF,0xFF,0xFF,0xD7,0x56,0x00,0xA2,0xFD,0xFF,
   0x6F,0xFE,0xDF,0xEF,0xFF,0xFF,0xBF,0xFF,0xAE,0xAD,0xFF,0xFB,
   0xFF,0x7A,0xB5,0xFF,0xFF,0xFF,0xFF,0xFF,0xFF,0xFF,0xFF,0xFF,
   0xEF,0xFD,0xBF,0xFF,0xFF,0xFB,0xFF,0xFF,0xFF,0x7F,0x29,0x0D,
   0x40,0x54,0xFF,0xFF,0xAB,0xEE,0x7E,0xFF,0x7F,0xEF,0xFF,0xBF,
   0xFF,0xFF,0x55,0x57,0x55,0x57,0xEB,0xFE,0xFF,0xFF,0xFF,0xFF,
   0xFF,0xFF,0xFF,0xFF,0xFF,0xEF,0xFF,0xF7,0xFF,0xFF,0xFF,0xFF,
   0xFF,0x7F,0x6B,0x07,0x02,0x71,0xFF,0xFF,0x95,0xBF,0xFF,0xFF,
   0xFF,0x67,0xFF,0xF7,0xD7,0xAA,0xFF,0xBA,0xFA,0xFD,0x4A,0xFF,
   0xFF,0xFF,0xFF,0xFF,0xFF,0xFE,0xFF,0xFF,0xFF,0xFF,0xEF,0xDF,
   0xFF,0xFF,0xFF,0xFF,0xFF,0x7F,0xED,0x04,0x10,0xAA,0xFF,0x7F,
   0x07,0xF6,0xFB,0xEF,0x7F,0xFF,0xFF,0xFF,0x7E,0x7F,0xD5,0xAD,
   0x5A,0x25,0xAD,0xFF,0xFF,0xFF,0xFF,0xFF,0xFF,0xFF,0xFF,0xFF,
   0xEF,0xFF,0xFF,0xF5,0xBB,0xFF,0xFD,0xFF,0xFF,0xFF,0xCD,0x09,
   0x40,0xF4,0xFF,0x7F,0xFD,0x6F,0x7F,0xFF,0xBF,0xDF,0xBF,0xDE,
   0xF7,0xD5,0xBF,0xFA,0xFF,0xBB,0xD6,0xFF,0xFF,0xFF,0xFF,0xFF,
   0xFF,0xFF,0xFF,0xFF,0xFF,0xFB,0x7B,0x7F,0xFF,0xFF,0xBF,0xFF,
   0xFF,0xFF,0x9F,0x41,0x88,0xFE,0xFF,0xDF,0x42,0xDB,0xEF,0xFF,
   0xFF,0xF5,0xFF,0xFF,0xAE,0xFF,0xB2,0xD7,0xFF,0xF7,0x39,0xFD,
   0xFF,0xFF,0xFF,0xFE,0xFF,0xFF,0xFF,0xFF,0xEF,0xFF,0xFF,0xFF,
   0xFF,0xEF,0xFF,0xFF,0xFF,0xFF,0x3F,0xA0,0x18,0xFD,0xFF,0x6F,
   0xD3,0xBB,0xFA,0xF7,0xF7,0xFD,0xFF,0xDF,0x7B,0x55,0x6F,0xF7,
   0xFF,0xFF,0xEF,0xFF,0xFF,0xFF,0xBF,0xEF,0xFF,0xFF,0xFF,0xFF,
   0xFF,0xEF,0x5F,0xDB,0xFF,0xFB,0xFD,0xFF,0xFF,0xFF,0x7F,0x50,
   0x00,0xFF,0xFF,0x5D,0xD2,0xF6,0xBF,0xFF,0x7F,0xFB,0xFF,0xF5,
   0xDD,0xEF,0x79,0xFF,0xFF,0xFF,0x7F,0xFE,0xFF,0xFF,0xFF,0xFB,
   0xFF,0xFF,0xFF,0xFF,0xEF,0x7D,0xF7,0xFE,0xFF,0xFE,0xFF,0xFF,
   0xFF,0xFF,0x1F,0x28,0x9A,0xFE,0x7F,0xF3,0xEC,0xD5,0xEE,0xFF,
   0xFD,0x7D,0xFB,0xBF,0xBF,0xBA,0xEA,0xFF,0xFF,0xFF,0xFF,0xFF,
   0xFF,0xFF,0x6F,0xFF,0xFF,0xFF,0xFF,0xFF,0xFF,0xFF,0xFF,0xFF,
   0xF7,0x7F,0xFF,0xFF,0xFF,0xFF,0x5F,0x54,0x82,0xFF,0x7F,0xAD,
   0xBF,0xBF,0xFF,0xFF,0x5F,0xFF,0x7F,0xFF,0xED,0xCD,0xFF,0xFF,
   0xFF,0xFF,0xFF,0xFE,0xFF,0xFF,0xDF,0xFF,0xFF,0xFF,0xEF,0xFF,
   0xEF,0xFF,0xFF,0xFB,0xFF,0xFF,0xF7,0xFF,0xFF,0xFF,0x17,0x3C,
   0xE0,0xFF,0xF5,0x85,0x76,0xF5,0xFB,0x7E,0xF7,0xBF,0xEF,0xAF,
   0xBB,0xBD,0xFE,0xFF,0xFF,0xFF,0xFF,0xFE,0xFF,0xFF,0xBF,0x6D,
   0xFF,0xFF,0xFD,0xFF,0xFF,0xFF,0xEF,0xDF,0xFE,0xFF,0xFF,0xFF,
   0xFF,0xFF,0x07,0x3E,0xE1,0xDF,0x52,0xF3,0xAF,0xDD,0xDE,0xFF,
   0xDF,0xFF,0xFF,0xFB,0xAE,0xBB,0xFF,0xFF,0xFF,0xFF,0xFF,0xFF,
   0xFF,0xFF,0x7F,0xFF,0xFF,0xFF,0xFF,0xFF,0xEF,0xBD,0xFB,0xFF,
   0x7F,0xBF,0xFF,0xFF,0xFF,0xFF,0x01,0x7D,0xF0,0xAF,0xAB,0xFD,
   0xF5,0xF6,0xF7,0xDF,0xF5,0xF7,0x77,0xDF,0xB7,0xFA,0xFF,0xFF,
   0xFF,0xFF,0xFF,0xFF,0xFF,0xFF,0x7F,0xFB,0xFF,0xFF,0xFF,0xFF,
   0xFF,0xFF,0xFF,0xFF,0xDF,0xF7,0xFF,0xFF,0xFF,0xFF,0x22,0xFF,
   0xFF,0xA9,0xC7,0x2E,0xDB,0x7F,0xFF,0xFF,0xFF,0xFD,0xFD,0x75,
   0xDD,0xFF,0xFF,0xFF,0xB7,0xFF,0xFF,0xFF,0xFF,0xFF,0xFF,0xFE,
   0xFF,0xDF,0xFF,0xFF,0xEF,0xFF,0xFF,0xFF,0xFF,0xFB,0xFD,0xFF,
   0xFF,0x7F,0x41,0xFE,0xFF,0x33,0x5C,0xFF,0x6E,0xD7,0xFD,0x77,
   0xDD,0xFF,0xAF,0xBF,0xDB,0xFF,0xFF,0xFF,0xFF,0xFF,0xFF,0xFF,
   0xFF,0xFF,0xFF,0xFF,0xFF,0xFD,0xFF,0xFF,0xFF,0xEF,0xFD,0xFF,
   0x7F,0xFD,0xFF,0xFF,0xFF,0xBF,0xA8,0xFF,0x9F,0x8E,0xF2,0xD5,
   0xFB,0xFD,0xFF,0xFD,0xFF,0xFF,0xFE,0x6A,0xFE,0xFF,0xFF,0xFF,
   0xFF,0xFF,0xFF,0xFF,0xFF,0xFF,0xFF,0xFD,0xFF,0xFF,0xFF,0xFF,
   0xEF,0xFF,0xEF,0xFF,0xFF,0xDF,0xFF,0xFF,0xFF,0x0F,0x80,0xFF,
   0x1F,0x71,0xA9,0xA9,0xBE,0xFB,0xFF,0x5F,0xFF,0xBF,0xAB,0xFF,
   0xFF,0xFF,0xFF,0xFF,0xFF,0xFF,0xFF,0xFF,0xFF,0xFF,0xFF,0xFF,
   0xFF,0xFF,0xFF,0xFF,0xFF,0x7B,0xFF,0xBF,0xFF,0xFF,0xFF,0xFF,
   0xFF,0x57,0xD4,0xFF,0x73,0xCC,0x7D,0xFE,0xD7,0xFE,0xBF,0xF7,
   0xF7,0xEF,0xFF,0xEA,0xFF,0xFF,0xFF,0xFF,0xFF,0xFF,0xFF,0xFF,
   0xFF,0xFF,0xFF,0xFF,0xFF,0xFD,0xFF,0xFF,0xEF,0xFF,0xFF,0xFB,
   0xFF,0xFF,0xFF,0xFF,0xFF,0x0B,0x60,0x7F,0x89,0x25,0xCF,0xF7,
   0xFE,0xFF,0xEF,0xDD,0xFF,0xFF,0xB6,0xFF,0xFF,0xFF,0xFF,0xFF,
   0xFF,0xFF,0xDF,0xFF,0xFF,0xFF,0xFF,0xFF,0xFF,0xFF,0xFF,0xFF,
   0xFF,0xDF,0x7B,0xFF,0xF7,0xFF,0xFF,0xFF,0xFF,0x05,0xD5,0xDF,
   0x43,0x7A,0xFB,0xBD,0xDB,0xFF,0x7B,0xF7,0xFF,0xDF,0xDB,0xFD,
   0xFF,0xFF,0xFF,0xFF,0xFF,0xFF,0xFD,0xFF,0xFF,0xFF,0xFF,0xFF,
   0xFF,0xFD,0xFF,0xFF,0xEF,0xFD,0xDF,0xFF,0xBF,0xF7,0xFF,0xFF,
   0xFF,0x82,0xF8,0xA7,0x0E,0x49,0xB5,0xFF,0xFE,0xFD,0xFE,0xFD,
   0x7F,0x75,0x77,0xFF,0xFF,0xFF,0xFF,0xFF,0xFF,0xFF,0xFF,0xFF,
   0xFE,0xFF,0xFF,0xFF,0xFF,0xFF,0xFF,0xFF,0xFF,0x7F,0xFF,0xEF,
   0xFF,0xFF,0xFF,0xFF,0xFF,0x10,0xF2,0x25,0x39,0xB0,0xFF,0xEF,
   0xFF,0xBF,0xAF,0x7F,0xFF,0xDF,0xFD,0xFF,0xFF,0xFF,0xFF,0xFF,
   0xFF,0xFF,0xFF,0xFF,0xFF,0xFF,0xFF,0xFF,0xFF,0xFC,0xFF,0xFF,
   0xEF,0xEF,0xF7,0xFF,0xFD,0xFF,0xFF,0xFF,0xBF,0x02,0x7C,0x5F,
   0xD4,0xFD,0xAA,0xFD,0x7F,0xFF,0xFB,0xFE,0xBF,0x7B,0xEF,0xFF,
   0xFF,0xFF,0xFF,0xFF,0xFF,0xFF,0xFF,0xFF,0xFF,0xFF,0xFF,0xFF,
   0xFF,0xFD,0xFF,0xFF,0xFF,0xFB,0xFD,0xFE,0xDF,0xFD,0xFF,0xFF,
   0x5F,0x80,0xBD,0x10,0x29,0xAA,0xF6,0xFF,0xDF,0xF7,0xEE,0xFF,
   0xFF,0xFD,0xFB,0xFF,0xFF,0xFF,0xFF,0xFF,0xFF,0xFF,0xFF,0xFF,
   0xFF,0xFF,0xFF,0xFF,0xFF,0xFD,0xFF,0xFF,0xEF,0xDF,0xDF,0xFF,
   0xFF,0xFF,0xFF,0xFF,0x2F,0x00,0x9F,0xC7,0x42,0x77,0x5D,0xEF,
   0xFB,0xBF,0xBB,0xFF,0xDF,0xB7,0xFE,0xFF,0xFF,0xFF,0xFF,0xFF,
   0xFF,0xFF,0xFF,0xFF,0xFF,0xFF,0xFF,0xFF,0x7F,0xFD,0xFF,0xFF,
   0xFF,0x77,0xFB,0xDF,0xF7,0xFF,0xFF,0xFF,0x0F,0x40,0x17,0x58,
   0xD5,0xA9,0xF7,0xFB,0xFE,0xEB,0xFE,0xFB,0x7B,0xEF,0xFD,0xFF,
   0xFF,0xFF,0xFF,0xFF,0xFF,0xFF,0xFF,0xFF,0xFF,0xFF,0xFF,0xFF,
   0xFF,0xFD,0xFF,0xFF,0xEF,0xFF,0x7F,0xF7,0xBD,0xFE,0xFF,0xFF,
   0x97,0x90,0x34,0x42,0xAA,0xB6,0xDE,0xFE,0xEF,0x6E,0xEF,0xFF,
   0xEF,0x7D,0xFF,0xFF,0xFF,0xFF,0xFF,0xFF,0xFF,0xFF,0xFF,0xFF,
   0xFF,0xFF,0xFF,0xFF,0xBF,0xFD,0xFF,0xFF,0xFF,0xFF,0xFF,0x7F,
   0xEF,0xFF,0xFF,0xFF,0x09,0xAA,0xEA,0x88,0x6C,0xFD,0xFB,0xFF,
   0xFB,0xFB,0xFB,0xFF,0xBF,0xDB,0xFF,0xFF,0xFF,0xFF,0xFF,0xFF,
   0xFF,0xFF,0xFF,0xFF,0xFF,0xFF,0xFF,0xFF,0xFF,0xFE,0xFF,0xFF,
   0xEF,0xFF,0xFF,0xFF,0xFB,0xFF,0xFF,0xFF,0x02,0xC0,0x94,0x23,
   0xF7,0xD7,0xDE,0xBF,0xBF,0xDE,0xFF,0x7F,0xEF,0xFE,0xFF,0xFF,
   0xFF,0xFF,0x7F,0xFD,0xFD,0xFD,0xFF,0xFF,0xFF,0xFF,0xFF,0xFF,
   0xBF,0xFE,0xFF,0xFF,0xFF,0xFF,0xFF,0xFF,0xFF,0xFF,0xFF,0x7F,
   0x01,0xB2,0xC9,0x5C,0x7A,0xFF,0xFF,0xEE,0xFD,0xF7,0xFE,0xFB,
   0xFB,0xAB,0xFF,0xFF,0xFF,0xFF,0x7F,0x7F,0xF7,0xF7,0xFF,0xFF,
   0xFF,0xFF,0xFF,0xFF,0xDF,0xF6,0xFF,0xFF,0xEF,0xFF,0xFE,0xFF,
   0xFF,0xFF,0xFF,0x3F,0x80,0x64,0x13,0x26,0xFF,0xFD,0xEF,0xF7,
   0x6F,0xFD,0xFF,0xFF,0x5F,0xFF,0xFF,0xFF,0xFF,0xFF,0xFE,0xDD,
   0x7D,0xFD,0xF7,0xFF,0xFF,0xFF,0xFB,0xFE,0xFF,0xFE,0xFF,0xFF,
   0xFF,0xBF,0xEF,0xDB,0xFF,0xFF,0xFF,0xA7,0x40,0x39,0x4C,0x91,
   0xAE,0xB7,0xFF,0xBD,0xBF,0xFF,0xFF,0xEF,0xFD,0xF5,0xFF,0xFF,
   0xFF,0xFF,0x9F,0x77,0xFF,0xFF,0xFE,0xFF,0xFF,0xFF,0xBF,0xEF,
   0xAF,0xFE,0xFF,0xFF,0xEF,0xFB,0x7F,0xFF,0xFF,0xFF,0xFF,0x4B,
   0x10,0x46,0xB3,0xEA,0xE9,0xFE,0x7B,0xEB,0xEB,0x7F,0x7D,0xFF,
   0xB7,0xFF,0xFF,0xFF,0xFD,0x7E,0xFD,0xFD,0xDB,0xF6,0xF5,0xFF,
   0xFF,0xFF,0xFF,0xFF,0xFF,0xFE,0xFF,0xFF,0xFF,0xFE,0xFF,0xFF,
   0xFF,0xFF,0xFF,0x23,0xA0,0x58,0x44,0x95,0xD4,0xFB,0xDF,0xFE,
   0x7D,0xFB,0xFF,0xDF,0x7F,0xFD,0xFF,0xFB,0xB7,0xFB,0x77,0xFF,
   0xFF,0xBF,0xEF,0xFF,0xFF,0xFF,0xFB,0xFB,0xD7,0xEE,0xFF,0xFF,
   0xEF,0xFF,0xFF,0xFF,0xFF,0xFF,0xFF,0x01,0x04,0x55,0x95,0x64,
   0xB9,0xFF,0x76,0x7B,0xF7,0xBF,0xFF,0xFE,0xEF,0xFF,0xFF,0xFF,
   0xFE,0x5E,0xDD,0x57,0xBF,0xF5,0xFB,0xEB,0xFF,0xFF,0xDF,0xFF,
   0xEF,0xFE,0xFF,0xFF,0xFF,0xFF,0xFF,0xFF,0xFF,0xFF,0xFF,0x00,
   0x50,0x4B,0x29,0xE1,0xEE,0xBD,0xBF,0xDE,0xDD,0xDF,0xFF,0xFF,
   0x7F,0xFD,0xFF,0xFB,0xBD,0xFF,0xFF,0xFF,0xEA,0xDF,0xFE,0xFE,
   0xFF,0xFF,0x7D,0xF7,0xBF,0xFE,0xFF,0xFF,0xEF,0xEF,0xB7,0xFF,
   0xFF,0xFF,0x7F,0x01,0x4A,0x94,0x64,0x5F,0xFD,0xFF,0xDF,0xFF,
   0xFF,0xFF,0xFE,0xBB,0xFF,0xFB,0xFF,0xBF,0xF7,0xED,0xFF,0xFD,
   0xFF,0xF6,0xBF,0xEB,0xFF,0xFF,0xEF,0xFF,0xED,0xEE,0xFF,0xFF,
   0xFF,0xDF,0xFE,0xFB,0xFF,0xFF,0xBF,0x88,0x80,0x72,0x8B,0xB0,
   0x6A,0xDF,0xEE,0xB5,0xFE,0xDB,0xFF,0xFF,0x7F,0xFF,0xFF,0xFF,
   0x7D,0xFF,0xB7,0xDF,0xFF,0x7F,0xFB,0xDE,0xFF,0xFF,0xF5,0xFE,
   0xDF,0xFF,0xFF,0xFF,0xEF,0xFF,0xFF,0xBF,0xFF,0xFF,0x3F,0x02,
   0x50,0x4D,0x58,0xC4,0xFE,0xFF,0x7F,0xDF,0x7F,0xFF,0xFF,0xFF,
   0xFD,0xFD,0xFF,0xF7,0xFF,0xBF,0xFE,0xFF,0xDF,0xFF,0x6F,0xFF,
   0xD7,0xFF,0xBF,0xBF,0x7F,0xFB,0xFF,0xFF,0xFF,0xDF,0xFF,0xFF,
   0xFF,0xFF,0x5F,0x00,0xD0,0x10,0x82,0xBB,0xB6,0xB7,0xFF,0xE9,
   0xEF,0xFF,0xFF,0xF7,0xFF,0xFF,0xFF,0xBF,0xED,0xEB,0xFD,0xFB,
   0xFF,0xFF,0xFF,0xFB,0xFD,0xFF,0xEB,0xF7,0x5F,0xFF,0xFF,0xFF,
   0xEF,0xFB,0xFF,0xFF,0xFF,0xFF,0x5F,0x40,0xAA,0x92,0x76,0xA4,
   0xFF,0xFF,0x57,0xFD,0xFB,0xFF,0xFF,0x7F,0xBF,0xFF,0xFF,0x7F,
   0x5F,0xFF,0xEF,0xFE,0xFF,0xFF,0x7D,0xB7,0xD7,0xFF,0xFF,0xFD,
   0x7F,0xFF,0xFF,0xFF,0xFF,0xFF,0xB7,0xFB,0xFF,0xFF,0x1F,0x00,
   0xA4,0xEA,0x94,0xEA,0xDA,0xF7,0xBD,0xEE,0xDE,0xFF,0xFF,0xFF,
   0xFF,0xFF,0xFF,0xED,0xFB,0x7F,0xFF,0xFF,0xFF,0xFF,0xFF,0x6F,
   0xFD,0xFF,0x57,0xFF,0x5F,0xFF,0xFF,0xFF,0x6F,0xFF,0xFF,0xFF,
   0xFF,0xFF,0x0F,0x92,0xD2,0x15,0x65,0xB1,0xFF,0xDF,0xFF,0xFF,
   0xFF,0xFE,0xF7,0xFF,0xFF,0xFF,0x7F,0xFF,0xFF,0xEF,0x55,0xF5,
   0xF7,0xFF,0xFF,0xFF,0xF7,0xF7,0xDF,0xAF,0x7F,0xFF,0xFF,0xFF,
   0xDB,0xFF,0xFF,0xFF,0xFF,0xFF,0x8B,0x00,0x69,0x55,0x14,0x6D,
   0xFB,0x7D,0xFA,0xBF,0xB7,0x7F,0x5F,0xFB,0xFB,0xFF,0xFF,0xFF,
   0xFD,0x7D,0xFF,0x7F,0xFF,0xFF,0xFF,0xBF,0xEE,0xFD,0xBF,0xFE,
   0x7E,0xFF,0xFD,0xFF,0xFF,0xFF,0xFF,0xFF,0xFF,0xFF,0x21,0x00,
   0x74,0x94,0x57,0xDA,0x7F,0xB7,0xED,0xF7,0xFD,0xFF,0xF7,0x6F,
   0xDF,0xFD,0xDF,0xDF,0xBF,0xD7,0x5B,0xFF,0xFF,0xEF,0xFF,0xFF,
   0x7D,0xF7,0x7F,0xFF,0x5B,0x5F,0xFF,0xFF,0xBB,0xFF,0xFB,0xFF,
   0xF7,0x7F,0x02,0x90,0x6A,0x55,0x88,0x70,0xEF,0xDF,0x7E,0xDF,
   0xF7,0xFF,0x7F,0xFD,0x76,0xDF,0xFA,0xF6,0xEB,0x7E,0xEF,0xEF,
   0xFF,0xFF,0xFF,0xFF,0xEB,0xFE,0xFE,0xFF,0x7F,0xFF,0xFF,0xFF,
   0x7F,0xFF,0xFE,0xFF,0xFF,0xBF,0x00,0x00,0x74,0x91,0x13,0xDC,
   0xFB,0xBF,0xDB,0x77,0xDD,0xFF,0xEF,0xD7,0xDB,0x7F,0xB7,0x7F,
   0xBB,0xED,0x7D,0xFF,0xFF,0xFF,0xFF,0xFF,0xBF,0xB5,0xFF,0xFF,
   0x57,0xAF,0xFF,0xFF,0xEF,0xFD,0xFF,0xFF,0xFF,0xBF,0x00,0x40,
   0x79,0x55,0xA4,0xFE,0x7F,0xEB,0x7E,0xFF,0xF6,0xFF,0xFF,0x7D,
   0xFF,0xEF,0xFD,0xFF,0xDA,0x97,0xF7,0xFF,0xFF,0xFF,0xF7,0xFF,
   0xFF,0xEF,0xFE,0xFF,0x7F,0xFF,0xFF,0xFF,0xFB,0xDB,0xFF,0xEE,
   0xFD,0x3F,0x24,0x89,0x6E,0xD2,0x4A,0xB1,0xF7,0xBF,0xEB,0xAD,
   0xFD,0xFF,0xFF,0xFF,0xFD,0xBB,0xFE,0x55,0xEF,0xFE,0xFD,0xFF,
   0xFF,0xFF,0xFF,0xFF,0x7F,0xBD,0xFF,0xFF,0xAF,0xFF,0xFF,0xFF,
   0xBF,0xF7,0xFF,0xFF,0xFF,0xAF,0x00,0x20,0xF9,0x34,0xB5,0xF2,
   0xDE,0xF6,0xBF,0x7B,0xFF,0xFF,0xDE,0x7F,0xFF,0xEE,0x5F,0x77,
   0x7B,0xBB,0xFF,0xFF,0xFF,0xFB,0xFF,0xFE,0xFF,0xD7,0xFE,0xFF,
   0xBF,0xEF,0xFF,0xFF,0xFF,0xFF,0xFF,0xFF,0xFF,0x2F,0x00,0x52,
   0x7E,0x8B,0x0C,0xD0,0xFD,0x5F,0xFB,0xAE,0xF7,0xFF,0xFF,0xFF,
   0xAF,0xBB,0xB7,0xDD,0xDD,0xFF,0xFF,0xDF,0xFF,0xFF,0xFF,0xFF,
   0xFF,0x7F,0xFF,0xFF,0xBF,0xFF,0xFF,0xFF,0xFF,0x6B,0xFF,0xFF,
   0xFF,0x0B,0x20,0x20,0x7B,0x55,0x53,0x75,0xB7,0xF5,0xDF,0xFB,
   0xFD,0xEF,0xBF,0xFD,0xFF,0xFE,0xEB,0x77,0xF7,0xEF,0xFF,0xF7,
   0xFF,0xFF,0xFF,0xEF,0xFF,0xB7,0xF7,0xFF,0xBF,0xFF,0xFF,0xFF,
   0xEF,0xFF,0xDB,0xFE,0xFF,0x43,0x08,0x84,0x7E,0x25,0x29,0xEC,
   0xFD,0xDF,0x77,0xAD,0xFF,0xFF,0xFE,0xFF,0x6B,0xFF,0x7E,0xDD,
   0xED,0xFE,0xFF,0xFF,0xFF,0xFF,0xFF,0xFF,0xFF,0xFF,0xFD,0xFF,
   0xBF,0xFF,0xFF,0xFF,0xFF,0xEE,0xFF,0xDF,0xFF,0x14,0x00,0xD1,
   0xFE,0xC4,0x8A,0xBB,0xD7,0xF6,0xFD,0xFF,0xFF,0xFF,0xFB,0xBF,
   0xDD,0x6F,0xAB,0xBB,0xFF,0xFB,0xFF,0xFF,0xFF,0xFF,0xFF,0xFF,
   0xFF,0xBF,0xEF,0xFF,0xBF,0xFF,0xFF,0xFF,0xFF,0x7F,0xFF,0xFF,
   0x5F,0x2D,0x00,0xA4,0x7F,0x35,0x61,0x6F,0xFE,0xBD,0xDF,0xFE,
   0xFF,0x7D,0xFF,0x77,0xFF,0xBF,0xFF,0xFE,0xFF,0xDF,0xFF,0xD5,
   0xFF,0xFF,0xFF,0x7F,0xFB,0xFF,0xF6,0xFF,0xBF,0xFF,0xFF,0xFF,
   0xFF,0xDB,0xFF,0xFF,0x1B,0x00,0x08,0x48,0xFF,0x58,0xFA,0xB5,
   0x5B,0xEF,0x7D,0xF7,0xFF,0xEF,0xFF,0xEE,0xFB,0xF5,0xDA,0xEF,
   0xFF,0xFF,0xFF,0xFF,0xFE,0xFF,0xFF,0xFF,0xFF,0xFF,0xFF,0xFF,
   0xBF,0xFF,0xFF,0xFF,0xFF,0xFE,0xDF,0xFF,0xA5,0x01,0x00,0xB2,
   0xFF,0x47,0xB5,0xD7,0xFE,0xBD,0xF7,0xFF,0xFF,0xFF,0xFE,0xBD,
   0xBF,0xDF,0xFF,0x7F,0xDF,0xFF,0x7F,0xF7,0xFF,0xFF,0xFF,0xDE,
   0xFF,0xFF,0xF5,0xFF,0xBF,0xFF,0xFF,0xFF,0xFF,0xFF,0xF7,0x7D,
   0x55,0x04,0xA0,0xC4,0xFF,0x18,0xDE,0x9E,0xD7,0x77,0xDF,0xBE,
   0xBF,0xFB,0xB7,0xFB,0xEF,0xF6,0xB7,0xDA,0x75,0xFF,0xFF,0xBF,
   0xFF,0xFF,0xFF,0xFF,0xFF,0xFF,0xFF,0xFF,0xBF,0xFF,0xFF,0xFF,
   0xFF,0xFF,0xFF,0xEF,0x8B,0x00,0x05,0xE8,0xFF,0xA3,0xFA,0xE9,
   0xBD,0xEE,0x75,0xEB,0xFF,0xED,0xFF,0xFE,0xBD,0xBF,0xFE,0xFF,
   0xFF,0xFD,0xFB,0xFF,0xFF,0xFF,0xFF,0xFF,0xBF,0xFF,0xFB,0xBF,
   0xBF,0xFF,0xFF,0xFF,0xFF,0xFF,0xFD,0xBF,0x02,0x40,0x00,0xD2,
   0xFF,0x8D,0x58,0xBF,0x77,0xBB,0xDF,0xFE,0xFF,0xFF,0xBF,0xBF,
   0xFB,0xED,0x6D,0xAD,0x56,0xFF,0xDF,0xFD,0xFF,0xFF,0x7F,0xFF,
   0xFF,0xFF,0xDF,0xFD,0xBF,0xFF,0xFF,0xFF,0xEF,0xEF,0xFF,0xBB,
   0x10,0x00,0x00,0x74,0xFF,0x51,0xF5,0xEB,0xCD,0xEE,0x7A,0x56,
   0x7B,0xF7,0xFF,0x77,0x6F,0xBF,0xB7,0xFF,0xFF,0x7F,0x7B,0xFF,
   0xFF,0xFF,0xFF,0xFF,0xFF,0xFB,0xF7,0xFF,0xBF,0xFF,0xFF,0xFF,
   0x7D,0xFD,0xFF,0x27,0x0B,0x00,0x90,0xD9,0xFF,0x15,0xB2,0x7F,
   0x2F,0xDE,0x4F,0xF4,0xDF,0xFF,0xFB,0xDE,0xFB,0x75,0xFB,0xB5,
   0x75,0xDB,0xEF,0xFF,0xFF,0xFF,0xFF,0xFF,0xFF,0xFF,0xFF,0xBF,
   0xBF,0xFF,0xFF,0xFF,0xD7,0xBF,0x7F,0x49,0x00,0x08,0x09,0xF6,
   0xFF,0xA3,0xC8,0xDA,0x1B,0x75,0x7B,0x64,0xFF,0xFF,0xDF,0xFB,
   0xAE,0xDF,0x6D,0xFF,0xDE,0xFF,0x7A,0xFB,0xFF,0xFF,0xFF,0xEE,
   0xFF,0xFF,0xFF,0xFF,0xAF,0xFF,0xFF,0xFF,0x7D,0xEB,0xEE,0xA9,
   0x00,0x00,0xA0,0xFA,0xFF,0x57,0x25,0xEF,0xA6,0xDF,0x0F,0xAD,
   0xFD,0x7F,0xFF,0xAE,0x7B,0x75,0xFF,0xAD,0x7B,0xED,0xEF,0xDF,
   0xFF,0xFF,0xFF,0xFF,0xFE,0xFF,0xFF,0xFF,0xDF,0xFF,0xFF,0xFF,
   0xEF,0xFF,0x7B,0x15,0x04,0x42,0x10,0xFD,0xFF,0x6F,0x49,0xF0,
   0x1B,0x7B,0x75,0xD1,0xD7,0xFF,0xFF,0xFB,0xDE,0xDF,0x55,0xFF,
   0xD7,0xBF,0xBA,0xFE,0xFF,0xFF,0xBF,0xFF,0xFF,0xFE,0xBF,0xBB,
   0xDF,0xFF,0xFF,0xFF,0xFF,0xB6,0x9E,0x42,0x80,0x00,0xA4,0xEE,
   0xFF,0xC7,0x92,0xC4,0xB6,0xD7,0xAF,0x74,0xBF,0xF6,0xFF,0x6E,
   0x77,0x7B,0xFF,0xAB,0xFE,0xFB,0xEF,0xFB,0xFF,0xFF,0xFF,0xF7,
   0xFF,0xFF,0xEF,0xFF,0xDF,0xFF,0xFF,0xFF,0xFF,0xFF,0xEB,0x22,
   0x00,0x00,0x91,0xFE,0xFF,0x97,0x24,0x15,0xAC,0x7E,0xAD,0xA0,
   0xED,0xFF,0xFF,0xBF,0xDD,0xAD,0x6D,0xFF,0x55,0xAF,0xFA,0xFF,
   0xFF,0xFF,0xEF,0xFE,0xFF,0xFF,0xFF,0xDE,0xDD,0xFF,0xFF,0xFF,
   0xFF,0xFF,0x9F,0x00,0x10,0x24,0xA0,0xF6,0xFF,0x87,0x53,0xAA,
   0xF2,0xDB,0x77,0xFF,0xBF,0xFE,0xFF,0xF7,0x77,0xFF,0xDB,0x55,
   0xFF,0xFB,0x5F,0xFF,0xFD,0xFF,0xFF,0xEF,0xFF,0xFF,0xBF,0xF7,
   0xDF,0xFF,0xFF,0xFF,0xDB,0xFF,0x13,0x04,0x80,0x00,0xC8,0xFF,
   0xFF,0x1F,0x69,0x05,0xB1,0xBE,0x5E,0x48,0xEB,0xF5,0xFB,0x5F,
   0xDD,0x55,0x7F,0xFF,0xDB,0x5F,0xFB,0xFD,0xFF,0xFF,0xFF,0xBF,
   0xFF,0xFF,0xF7,0x7F,0xDF,0xFF,0xFF,0xFF,0xFF,0xFF,0xC7,0x00,
   0x02,0x00,0x92,0xFE,0xFF,0x5F,0x8D,0x75,0xA8,0xEF,0xFD,0xFF,
   0x5E,0xEF,0xEF,0xFF,0x77,0xFF,0xEA,0xD5,0xEE,0xF6,0x6E,0xBF,
   0xF6,0xFF,0xBB,0xFD,0xFB,0xFF,0x7F,0xFB,0xDF,0xFF,0xFF,0xFF,
   0xFF,0xFF,0x9A,0x00,0x00,0x90,0xA4,0xFF,0xFF,0x1F,0x56,0x46,
   0xA1,0xBD,0x6B,0xAB,0x7F,0xBD,0xFF,0xBF,0xEE,0xAA,0xBF,0xBF,
   0xFF,0xDF,0xFB,0xEF,0xFF,0xFF,0xEF,0xEF,0xFF,0xFF,0xEB,0xBF,
   0xDF,0xFF,0xFF,0xFF,0xFF,0x6D,0x41,0x40,0x10,0x00,0xE8,0xFF,
   0xFF,0x3F,0xD9,0x3D,0x2C,0xF7,0xDE,0xEF,0xFA,0xEB,0xD7,0xFF,
   0xBD,0xFF,0x76,0xF5,0xFD,0x77,0xDF,0x7B,0xFB,0xFF,0xFD,0x7B,
   0xFF,0xFF,0xB7,0xFD,0xD7,0xFF,0xFF,0xFF,0x7F,0x7F,0x17,0x00,
   0x01,0x09,0xE5,0xFF,0xFF,0x7F,0x21,0xE8,0x6B,0xFE,0x7B,0x5D,
   0xD7,0xFF,0xFF,0x7F,0xEB,0xAA,0xEF,0xAF,0x6B,0xDF,0xFD,0xDE,
   0xFF,0x7F,0xDF,0xFF,0xFF,0xFF,0xFB,0x6D,0xDF,0xFF,0xFF,0xFF,
   0xF7,0x97,0x04,0x08,0x00,0x00,0xF2,0xFF,0xFF,0xFF,0x6C,0x13,
   0x48,0xB7,0xED,0xF7,0x54,0x7D,0x5F,0xFF,0x9D,0xFB,0xBA,0x7A,
   0xDF,0xFF,0xFF,0xFB,0xFE,0xDF,0xFB,0xFF,0x7B,0xFF,0x57,0xFF,
   0xDF,0xFF,0xFF,0xFF,0xBF,0x6D,0x03,0x82,0x40,0x20,0xE8,0xFF,
   0xFF,0xFF,0x55,0x4E,0xBB,0xFD,0xBF,0xDD,0xFF,0xD7,0xFF,0xBF,
   0xF7,0xAE,0xEF,0xEF,0xF5,0xEE,0xB7,0xEE,0xFF,0xFF,0x7E,0xFD,
   0xFF,0xFF,0xAB,0xF7,0xDF,0xFF,0xFF,0xFF,0xED,0x77,0x01,0x01,
   0x10,0x08,0x6D,0xFF,0xFF,0xFF,0xDB,0x39,0x44,0x7E,0xF7,0x7F,
   0xDB,0xFE,0x5E,0xFF,0xBA,0xD6,0x7A,0xBB,0xBF,0x7F,0xDF,0xB7,
   0xFF,0xB7,0xEF,0xBF,0xFF,0xFF,0x77,0xEF,0xDE,0xFF,0xFF,0xFF,
   0xFF,0xCA,0x52,0x20,0x00,0x00,0xF9,0xFF,0xFF,0xFF,0x57,0xD7,
   0x6B,0xEF,0xDD,0xF6,0x77,0xFB,0xFF,0xFF,0xD7,0xD9,0xDF,0xEE,
   0xF6,0xFB,0xFB,0xFD,0xFF,0xFF,0xFF,0xEF,0xEF,0xDF,0xDB,0xBA,
   0xDF,0xFF,0xFF,0xFF,0xBB,0x1D,0x08,0x00,0x04,0x41,0xEA,0xFF,
   0xFF,0xFF,0x53,0x80,0xFA,0xBB,0x77,0x6F,0xBB,0xEF,0xF6,0x7D,
   0xBD,0x7F,0xF5,0xFB,0xDF,0xFE,0xAE,0xDF,0xFF,0xD7,0xBA,0xFB,
   0xFF,0xFF,0x57,0xF7,0xDF,0xFF,0xFF,0xFF,0x6F,0x55,0x01,0x22,
   0x40,0x88,0xFC,0xFF,0xFF,0xFF,0x87,0x5A,0xD7,0xDE,0xDA,0xDD,
   0xDF,0xDD,0xFB,0xFF,0x65,0xD2,0x5F,0x6F,0xFD,0xBF,0xFB,0xFA,
   0xFF,0xFF,0xEF,0xFF,0xFF,0xFF,0xBF,0xAD,0xF7,0xFF,0xFF,0xFF,
   0xAD,0x0A,0x40,0x00,0x04,0x40,0xFF,0xFF,0xFF,0xFF,0x3F,0xA5,
   0xBD,0xF7,0xBF,0x7B,0x7D,0xBB,0xFF,0xFF,0xB5,0xED,0xFA,0xFA,
   0xF7,0xDF,0xDF,0xEF,0xFF,0xAD,0xFE,0xFF,0xBF,0xFF,0x6F,0xDB,
   0xEF,0xFF,0xFF,0xFF,0x5B,0x55,0x11,0x00,0x00,0x10,0xFA,0xFF,
   0xFF,0xFF,0xDF,0xF8,0xCA,0x7A,0x65,0xAD,0xF7,0x77,0xFD,0x7F,
   0x1B,0xB4,0xD7,0x5F,0xBF,0xED,0x76,0xFD,0xFF,0xFF,0xF5,0x7E,
   0xF7,0xF7,0xAF,0xF6,0xEF,0xFF,0xFF,0xFF,0x55,0x45,0x88,0x00,
   0x21,0x51,0xFF,0xFF,0xFF,0xFF,0xFF,0xAF,0xB7,0xEE,0x4F,0xFB,
   0x5E,0xED,0xFB,0xFF,0x56,0xF1,0xBE,0xF6,0xEF,0x77,0xDF,0xDF,
   0xFF,0xAA,0xBF,0xEF,0xFF,0xFF,0xFF,0xEA,0xEF,0xFF,0xFF,0xFF,
   0xAE,0x00,0x00,0x44,0x00,0xA0,0xFE,0xFF,0xFF,0xFF,0x7F,0xFB,
   0xAE,0xAA,0xBD,0xAA,0xF5,0x5F,0xFE,0xFB,0xB7,0xD8,0xF5,0xBF,
   0x7D,0xBD,0xED,0xFD,0xBF,0xFF,0xFA,0xFF,0xFF,0xFF,0xFE,0xFF,
   0xEF,0xFF,0xFF,0xFF,0x33,0x80,0x22,0x00,0x08,0x48,0xFF,0xFF,
   0xFF,0xFF,0xB7,0xD6,0x7A,0x73,0xEF,0xE4,0x5F,0xB5,0xEB,0xFF,
   0x2A,0xBA,0x5F,0xED,0xB7,0xEF,0x7F,0xF7,0xEF,0xAB,0xFF,0xFD,
   0xFF,0xFF,0xFF,0xFF,0xEF,0xFF,0xFF,0xFF,0x0D,0x51,0x08,0x00,
   0x40,0xD5,0xFF,0xFF,0xFF,0xFF,0xF5,0x7B,0xEF,0xED,0xF9,0x97,
   0xFA,0xFF,0xFD,0xFF,0xDF,0x68,0x75,0x7F,0xEF,0x7D,0xDB,0xFF,
   0x7F,0xFF,0xDE,0xDF,0x76,0xDF,0xFF,0xFF,0xEF,0xFF,0xFF,0xFF,
   0xBA,0x00,0x00,0x22,0x00,0x71,0xFF,0xFF,0xFF,0x7F,0xAF,0xDE,
   0xBF,0x1F,0x47,0xFB,0x57,0x6D,0xDB,0xFF,0xA9,0xFA,0xED,0xEB,
   0x7D,0xD7,0xFF,0xFE,0xED,0xF7,0xFB,0xF7,0xFF,0xFF,0xFF,0xFF,
   0xF7,0xFF,0xFF,0xFF,0x03,0x00,0x08,0x00,0x24,0xEC,0xFF,0xFF,
   0xFF,0xBF,0xD9,0x77,0xA5,0xF5,0x35,0xAC,0xFE,0xF7,0xFB,0xFF,
   0xDB,0x6E,0xB5,0xBE,0xEB,0xFF,0xEA,0xFF,0x5B,0xDF,0xBF,0xBD,
   0xF7,0xFD,0xFF,0xFF,0xED,0xFF,0xFF,0xFF,0x29,0x22,0x02,0x00,
   0x80,0xB4,0xFF,0xFF,0xFF,0xFF,0xDA,0xDD,0xBB,0x3F,0x57,0xF3,
   0x5B,0x5D,0x57,0xFF,0xBE,0xDE,0xEA,0xFB,0xBE,0xAD,0xFF,0x5F,
   0xFF,0xFD,0xFE,0xDF,0xFF,0xFF,0xFF,0xBF,0xEF,0xFF,0xFF,0xFF,
   0x82,0x00,0x80,0x80,0x20,0xFB,0xFF,0xFF,0xFF,0xAF,0x7B,0x6F,
   0x7D,0xFA,0xAA,0xAD,0xDD,0xF7,0xEE,0xF7,0xEB,0xBA,0xBA,0xAE,
   0xFB,0xF7,0xFF,0xF7,0xD5,0xEF,0x6B,0xFB,0xDE,0xFF,0x7F,0xFB,
   0xEF,0xFF,0xFF,0xFF,0x48,0x40,0x24,0x20,0x88,0xFA,0xFF,0xFF,
   0xDF,0x7F,0xD7,0xB7,0xFF,0xD6,0xB7,0xDA,0x77,0xAD,0xBB,0xFD,
   0xAE,0x57,0xED,0xFF,0xAE,0xFE,0x7E,0xDF,0xFE,0x7F,0xDF,0xEE,
   0x7B,0xFF,0xDF,0xDF,0xEF,0xFF,0xFF,0xFF,0x12,0x10,0x01,0x00,
   0x00,0xFA,0xFF,0xFF,0xF7,0x55,0xBE,0xDE,0xF7,0xBB,0xEE,0xBF,
   0xEE,0xF6,0xEE,0xFF,0xFB,0xD6,0xFE,0xD5,0xFF,0xFF,0xDF,0xF5,
   0xBF,0xEB,0xED,0xBF,0xEF,0xFF,0xF7,0xFF,0xED,0xFF,0xFF,0xFF,
   0x04,0x00,0x00,0x00,0xA0,0xFE,0xFF,0xFF,0xBD,0xEF,0xD9,0x7E,
   0xFD,0xEF,0x5B,0xF5,0xDD,0xBB,0xFF,0x57,0xAD,0x3B,0xAB,0x7F,
   0xFB,0xFF,0x7B,0xBF,0xED,0xBF,0x6F,0xEB,0xFE,0xFE,0xFD,0xF6,
   0xEF,0xFF,0xFF,0xFF,0x00,0x04,0x00,0x02,0x81,0xFE,0xFF,0x7F,
   0xEF,0x58,0xF6,0x6D,0xFD,0x7F,0xF7,0xAF,0xBB,0xFE,0xFB,0x6D,
   0xFA,0xEA,0xFF,0xDA,0xFF,0xBF,0xEF,0xFB,0xFF,0xF6,0xFA,0xFF,
   0xDB,0x7F,0xBF,0xFF,0xEF,0xFF,0xFF,0xFF,0x00,0x01,0x20,0x00,
   0xA2,0xFA,0xFF,0xFF,0xBD,0xF7,0xDF,0x7E,0xFE,0xFF,0xBD,0x7D,
   0xF7,0x6F,0x6F,0xDB,0x55,0x4D,0xBB,0xF7,0xFF,0xF7,0x7A,0xDF,
   0x7F,0xAF,0xAF,0xD6,0xFE,0xFA,0xFB,0xFF,0xF3,0xFF,0xFF,0xFF,
   0x40,0x10,0x08,0x20,0xA0,0xFE,0xFF,0xDF,0x57,0xAD,0xDD,0xFB,
   0xFE,0xFF,0xFF,0xD7,0xBD,0xFB,0xFD,0xB6,0xEA,0xD3,0xCD,0xFE,
   0xFF,0xDF,0xDF,0xFF,0xD5,0x7A,0xF5,0xFB,0xD7,0x7F,0xFF,0xFF,
   0xFF,0xFF,0xFF,0xFF,0x10,0x81,0x80,0x00,0x89,0xFF,0xFF,0xAF,
   0xE9,0xFF,0x57,0x7F,0xFF,0xFF,0x6F,0xFF,0xFF,0x5F,0xB7,0xAB,
   0xD5,0xEE,0xB6,0xFF,0xD7,0x77,0xFB,0xFF,0xFF,0x57,0x57,0xAF,
   0x7E,0xDF,0xFF,0xFF,0xF7,0xFF,0xFF,0xFF,0x21,0x00,0x04,0x00,
   0xA0,0xFF,0xFF,0xEF,0xFF,0xD7,0xFF,0x7F,0xFF,0xFF,0xFB,0x7F,
   0xD7,0xFE,0xDF,0x5F,0xEB,0x7B,0xEA,0xFB,0xFF,0xFE,0xFF,0xFF,
   0xB5,0xEC,0xFA,0xFA,0xEB,0xFE,0xFF,0xFF,0xF7,0xFF,0xFB,0xF7,
   0x14,0x00,0x41,0x08,0xE5,0xFF,0xFF,0xEF,0xEE,0xFF,0xFF,0xBF,
   0xFF,0xFF,0x5E,0xEB,0xFF,0xEB,0xFA,0xEF,0x5A,0xAF,0x7E,0xFF,
   0xFF,0xFF,0xFF,0x7F,0xDB,0x9F,0xAD,0xAF,0xBD,0xFF,0xFF,0xFF,
   0xF7,0xFF,0xFF,0xFF,0x00,0x20,0x00,0x80,0x44,0xFF,0xFF,0xFF,
   0x7C,0xFF,0xDF,0xFF,0xFF,0xBF,0xF7,0x7F,0xED,0xBE,0xFF,0xBF,
   0xD5,0x5A,0xF5,0xBF,0xFE,0xFF,0xFF,0x7F,0xB6,0x75,0xDE,0x7A,
   0xDF,0xFF,0xB7,0xFF,0xF7,0xFF,0xFF,0xFF,0x00,0x04,0x00,0x02,
   0xE4,0xFD,0xFF,0x7F,0xFD,0xFF,0xFF,0xFF,0xFF,0xFF,0xBD,0xDA,
   0xBF,0xF7,0xFD,0xFF,0xB7,0x2D,0xBF,0xF5,0xDB,0xFD,0xFF,0xFF,
   0x69,0xFF,0xAB,0xD6,0xFB,0xFF,0xFE,0xDD,0xF7,0xFF,0xFF,0xFF,
   0x84,0x80,0x88,0xA0,0x46,0xFD,0xFF,0xFF,0xFD,0xFF,0xFF,0xFF,
   0xFF,0x6F,0xF7,0xFF,0xF6,0x5D,0xFF,0xFF,0x6F,0xEB,0xEF,0xDF,
   0xEE,0xFF,0xFF,0xBF,0x52,0xAD,0x7A,0x7B,0xEE,0xDF,0xFF,0xFF,
   0xF5,0xFF,0xFF,0xFF,0x21,0x00,0x20,0x00,0xAC,0xFF,0xFF,0xFF,
   0xFF,0xFF,0xFF,0xFF,0xFF,0xDF,0x5B,0xAB,0x5F,0xFF,0xFF,0xFF,
   0xFF,0xFA,0x7D,0x6D,0xF7,0xFE,0xFB,0xFF,0xD5,0xFE,0xAF,0xD6,
   0xFB,0xFB,0xFF,0xFF,0xF7,0xFF,0xFF,0xFF,0x00,0x12,0x00,0xA0,
   0xD4,0xFE,0xFF,0xFF,0xFD,0xFB,0xFF,0xFF,0xFF,0xFB,0xFE,0xFF,
   0xF5,0xF7,0xFF,0xFF,0xFF,0x75,0x97,0xFF,0xBD,0xDF,0xDF,0xFE,
   0x5B,0xAB,0xBD,0xD6,0x7E,0xFF,0xFB,0xFB,0xF7,0xFF,0xFF,0xFF,
   0x4A,0x00,0x02,0x08,0xDA,0xFD,0xFF,0xFF,0xFF,0xFF,0xFF,0xFF,
   0xFF,0xAE,0xDB,0x7A,0x7F,0xDD,0xFF,0xFF,0xFF,0xEA,0x77,0x55,
   0xEF,0xFB,0xFF,0xB7,0x6D,0x75,0xF7,0x6B,0xDF,0xFF,0x7E,0xBF,
   0x77,0xFF,0xFF,0xFF,0x00,0x80,0x00,0xA2,0x6C,0xFF,0xFF,0xFF,
   0xFF,0xFF,0xFF,0xFF,0xFF,0xFB,0xBE,0xEF,0xED,0xFF,0xFF,0xFF,
   0xFF,0xBB,0x5D,0xF9,0xBD,0xFF,0xFF,0xFF,0xBF,0xEA,0xDD,0xDE,
   0xFD,0xFF,0xFF,0xFF,0xFB,0xFF,0xFF,0xFF,0x00,0x20,0x90,0x80,
   0xD2,0xFB,0xFF,0xFF,0xFF,0xFF,0xFF,0xFF,0xBF,0xDF,0xEB,0xBB,
   0xB6,0xFF,0xFF,0xFF,0xFF,0xEF,0x7F,0xA2,0xFB,0xEE,0xFF,0xFF,
   0xEF,0x4B,0xBF,0xB7,0xFF,0xF7,0xFF,0xF7,0xF7,0xFD,0xFF,0xFF,
   0x10,0x0A,0x00,0x10,0xF5,0xFE,0xFF,0xFF,0xFF,0xFF,0xFF,0xFF,
   0xFF,0x7A,0xFF,0xDE,0xFF,0xFF,0xFF,0xFF,0xFF,0xBF,0x9B,0xA4,
   0xD6,0xFB,0xFF,0xFF,0x7F,0xFF,0xEA,0xFD,0xEF,0xFD,0xBF,0xFF,
   0x76,0xFF,0xFF,0xFF,0x00,0x04,0x08,0x50,0xFA,0xFF,0xFF,0xFF,
   0xFF,0xFF,0xFF,0xFF,0xEF,0xD7,0xDD,0xBB,0xBB,0xFF,0xFF,0xFF,
   0xFF,0xFF,0xFE,0xA3,0xBF,0xFD,0xDF,0xFF,0xFF,0xAA,0xBF,0x6F,
   0xFF,0xBF,0xFF,0xFF,0xF7,0xDF,0xFF,0xFF,0x80,0x00,0x02,0xA0,
   0xB6,0xFE,0xFF,0xFF,0xFF,0xFF,0xFF,0xFF,0xBB,0x76,0xF7,0xEE,
   0xEF,0xFF,0xFF,0xFF,0xFF,0xFF,0xEF,0x8A,0x6A,0xDF,0xFF,0xFF,
   0xFF,0xDF,0xF4,0xFA,0x7F,0xFF,0xFF,0xFD,0xFB,0xFF,0xFF,0xFF,
   0x08,0x02,0x80,0x0A,0xD2,0xFF,0xFF,0xFF,0xFF,0xFF,0xFF,0xFF,
   0xDE,0xFD,0xDF,0x7B,0xFB,0xFF,0xFF,0xFF,0xFF,0xFF,0xBB,0xB7,
   0xFE,0xFB,0xFF,0xFF,0xFF,0xBB,0xD5,0x6F,0xF7,0xFF,0xDF,0xFF,
   0xFB,0xFB,0xFF,0xFF,0xA0,0x40,0x10,0xA0,0x7A,0xFF,0xFF,0xFF,
   0xFF,0xFF,0xFF,0xBF,0x77,0xB7,0xBD,0xEE,0xFF,0xFF,0xFF,0xFF,
   0xFF,0xFF,0xFF,0xFD,0x55,0xEF,0xFF,0xFF,0xFF,0xFF,0xBF,0xFA,
   0xFF,0xFF,0xFF,0xFF,0x7F,0xFF,0xFF,0xFF,0x24,0x00,0x09,0x4A,
   0xFD,0xFB,0xFF,0xFF,0xFF,0xFF,0xFF,0xFF,0xDD,0xFD,0xF7,0x7B,
   0xFF,0xFF,0xFF,0xFF,0xFF,0xFF,0xBB,0xAF,0xFF,0xFD,0xDF,0xFF,
   0xFF,0x6F,0xFB,0xDF,0xDF,0xFF,0xFF,0xFF,0xFB,0xBF,0xFF,0xFF,
   0x08,0x08,0x80,0x08,0xF5,0xFF,0xFF,0xFF,0xFF,0xFF,0xFF,0xBF,
   0xB7,0x6F,0xED,0xDE,0xFF,0xFF,0xFF,0xFF,0xFF,0xFF,0xEF,0xFD,
   0x6A,0xFF,0xFF,0xFF,0xFF,0xFF,0x57,0xFB,0xFD,0xFF,0xFF,0xFE,
   0xFB,0xEF,0xFF,0xFF,0x01,0x20,0x20,0x42,0xDB,0xFF,0xFF,0xFF,
   0xFF,0xFF,0xFF,0xEF,0x6C,0xFB,0xBF,0xFF,0xFF,0xFF,0xFF,0xFF,
   0xFF,0xFF,0xFF,0xB7,0xBF,0xFD,0xFD,0xFF,0xFF,0xFF,0xFE,0xED,
   0xFF,0xFF,0xEF,0xFF,0xFF,0xFF,0xFF,0xFF,0x04,0x01,0x81,0xF0,
   0xFB,0xFF,0xFF,0xFF,0xFF,0xFF,0xFF,0xFF,0xEB,0x5F,0xF5,0xFE,
   0xFF,0xFF,0xFF,0xFF,0xFF,0xFF,0xF7,0xFD,0xED,0x6F,0xFF,0xFF,
   0xFF,0xFF,0xDB,0x7F,0xEF,0xFF,0xFF,0xF7,0xFB,0xFF,0xFD,0xFF,
   0x00,0x08,0x20,0x85,0xF7,0xFE,0xFF,0xFF,0xFF,0xFF,0xFF,0x57,
   0xBD,0xF6,0xDF,0xFF,0xFF,0xFF,0xFF,0xFF,0xFF,0xFF,0x5F,0x7F,
   0xBF,0xFD,0xFB,0xFF,0xFF,0xFF,0x7F,0xED,0xFF,0xFD,0xFF,0xFE,
   0xFB,0xBF,0xFF,0xFF,0x40,0x00,0x01,0xE9,0x7D,0xFF,0xF7,0xFF,
   0xFF,0xFF,0xFF,0xBF,0xF7,0xDB,0xFE,0xFF,0xFF,0xFF,0xFF,0xFF,
   0xFF,0xFF,0xFF,0xDF,0xEB,0x57,0xEF,0xFF,0xFF,0xFF,0xFF,0xFF,
   0xFF,0xFF,0xFF,0xFF,0xFB,0xED,0xFF,0xFF,0x00,0x82,0x28,0x9A,
   0xDF,0xFF,0xFF,0xFF,0xFF,0xFF,0xFF,0xFB,0xDE,0xFE,0xFF,0xFF,
   0xFF,0xFF,0xFF,0xFF,0xFF,0xFF,0x57,0xFF,0x7F,0xBD,0xBD,0xFF,
   0xFF,0xFF,0x7F,0xFB,0xFE,0xFF,0xEF,0xFF,0x7F,0xFF,0xFF,0xFF,
   0x24,0x00,0x42,0xD2,0xB5,0xFF,0xFB,0xFF,0xFF,0xFF,0xFF,0xD7,
   0xBD,0xFB,0xFF,0xFF,0xFF,0xFF,0xFF,0xFF,0x7F,0x73,0xFA,0xFB,
   0xDE,0x57,0xF7,0xFF,0x6F,0xFF,0xFF,0xDF,0xF7,0xEE,0x7F,0xF7,
   0xFB,0xFF,0xFD,0xFF,0x00,0x20,0x88,0xA4,0xFE,0xFB,0xF7,0xFF,
   0xFF,0xFF,0xFF,0xBE,0xF7,0xFF,0xFB,0xFF,0xFF,0xFF,0xFD,0xAF,
   0xDB,0x9E,0x55,0xAF,0xFF,0xFF,0xAD,0xFD,0xFB,0xB5,0xF7,0xFF,
   0xFF,0xFF,0xFF,0xFF,0xFB,0xFF,0xFF,0xFF,0x40,0x04,0x52,0xA4,
   0xF5,0xFF,0xEE,0xFF,0xFF,0xFF,0xFF,0xED,0x6E,0x99,0xAA,0xEF,
   0xFF,0xFF,0x6A,0xF5,0x36,0xEB,0xDE,0xFA,0xF6,0x6D,0xFB,0xFF,
   0xFF,0xEF,0xFF,0xFF,0xFF,0xFF,0xFF,0xFF,0xDF,0x6F,0xFF,0xFF,
   0x08,0x40,0x04,0xF5,0xBF,0xAF,0xFE,0xFF,0xFF,0xFF,0xBF,0x77,
   0xAD,0x6A,0x6B,0xF9,0xBF,0x2D,0x5B,0xAF,0xF5,0x9D,0xF5,0xFB,
   0xBB,0xFF,0xAF,0xF6,0xBF,0x5F,0xFF,0xFF,0xDE,0xBB,0xEF,0xFE,
   0xFA,0xFF,0xFF,0xFF,0x00,0x40,0x88,0x90,0xFF,0xB7,0xFF,0xFF,
   0xFF,0xFF,0xEF,0xDE,0x56,0xDB,0x5A,0x4B,0xDD,0xDA,0xF3,0xFA,
   0x56,0x72,0xAF,0xEE,0xEF,0xBF,0xEA,0xFF,0x6F,0xF5,0xFF,0xFF,
   0xFF,0xFF,0xFF,0xFF,0xFF,0xFF,0xFF,0xFF,0x40,0x02,0x04,0x6D,
   0x77,0x2D,0xEF,0xFF,0xFF,0xFF,0xBF,0x6B,0xAD,0x4A,0xD6,0x94,
   0x2A,0xEF,0x5A,0xAD,0xAB,0xCF,0x65,0xBB,0xDD,0xF6,0xAF,0xED,
   0xBF,0x3D,0xFB,0xBF,0xF7,0xFF,0xFF,0xBF,0xBB,0xF7,0xFE,0xFF,
   0x04,0x90,0x29,0x50,0xFD,0x46,0xEF,0xFF,0xFF,0xFF,0xAB,0xDA,
   0xEA,0xDD,0xAA,0xF5,0xDB,0xB6,0xFD,0xF5,0xD6,0xE9,0xBA,0xE7,
   0x6F,0xFF,0x5F,0xBB,0x7B,0xEB,0xFF,0xFF,0xFF,0xDF,0xDE,0xFF,
   0xFD,0xBF,0xFF,0xFF,0x00,0x00,0x82,0xA0,0x7E,0x1C,0xFD,0xFD,
   0xFF,0x7F,0x6B,0x2B,0x35,0xB3,0x5D,0x49,0x64,0xCD,0xD6,0xDA,
   0x6D,0x5B,0xF7,0xBA,0x7F,0xA9,0x7E,0xFF,0xEF,0xF7,0xFD,0xFF,
   0xFF,0xFF,0xFF,0xFD,0xFF,0xFF,0xFF,0xFF,0x08,0x05,0x94,0x22,
   0xB9,0x0E,0xFF,0xFE,0xFD,0x4D,0xD5,0xD4,0x4E,0x2D,0xB1,0xB6,
   0xD5,0x74,0xBD,0x2D,0xAB,0xDE,0xB4,0x5E,0xDD,0xF7,0xFB,0x6D,
   0xFD,0x7F,0xEF,0xFF,0xFE,0xFF,0xFF,0xFF,0xFA,0xFF,0xF7,0xFF,
   0x00,0x41,0x00,0x44,0x3A,0x18,0xFC,0xFF,0x5F,0xB1,0xBC,0xAB,
   0xD5,0xD5,0xD6,0x69,0x1E,0x95,0x56,0xCB,0x76,0xBB,0xD2,0xEA,
   0xF6,0x4F,0xEF,0xFF,0xDF,0x7F,0xFF,0xFF,0xB7,0xFD,0x77,0xDF,
   0xFF,0xF7,0xFE,0xFF,0x22,0x10,0x25,0x51,0x58,0x8E,0xFC,0xBF,
   0x52,0xAE,0xAA,0x56,0x9B,0xAA,0x2D,0x9A,0xB3,0xBE,0xAD,0xB7,
   0xAD,0xB6,0xAD,0xB6,0xBF,0xBD,0xFA,0xD7,0xF6,0xDF,0xFD,0xFD,
   0xFF,0xFF,0xFF,0xFF,0xFD,0xBF,0xFF,0xFF,0x00,0x41,0x0A,0x86,
   0x2A,0x08,0xED,0x77,0x5B,0xCB,0xAA,0xF5,0x72,0xAF,0xBA,0x2A,
   0x6C,0x95,0xDB,0x6E,0xB7,0x55,0xFB,0xEB,0xEA,0xDF,0xDF,0xFF,
   0x7F,0x77,0xB7,0xFF,0xFF,0xFF,0xFF,0xFF,0xFD,0xFF,0xFF,0xFF,
   0x10,0x12,0x10,0x09,0x4A,0x02,0xF4,0xDF,0xEA,0xBA,0xB6,0xAA,
   0x8E,0xD4,0xA9,0x54,0xDB,0x4E,0xBB,0xD5,0xAA,0x73,0x6D,0xBD,
   0xBF,0x76,0x7A,0xFF,0xDB,0x6F,0xFF,0x7F,0xF7,0xEF,0xDF,0x7B,
   0xFF,0xFD,0xFF,0xFF,0x24,0x84,0x42,0x94,0x00,0x4C,0x59,0x95,
   0x5A,0x6B,0xCD,0xB5,0x2A,0x2E,0x26,0xB5,0xA9,0xD5,0x76,0xB5,
   0x75,0xEF,0x6B,0xEB,0xF6,0xFF,0xB5,0xFF,0xFF,0xFF,0xBE,0xFF,
   0xFF,0xFB,0xFE,0xDF,0xFD,0xFF,0xFB,0xFF,0x01,0x90,0x14,0x20,
   0x01,0x01,0xAD,0xEA,0x92,0x56,0x55,0x6B,0xED,0xA5,0xD2,0x6D,
   0x5D,0xAC,0xA5,0x6A,0xDE,0xB2,0x56,0xB7,0x5B,0xFB,0xEB,0xFD,
   0xFF,0xDF,0xEB,0xF7,0xFF,0xFF,0xFF,0xFF,0x7F,0xBF,0xFF,0xFF,
   0x8A,0x01,0x2A,0x09,0x20,0x44,0xD3,0xB6,0xEE,0xB5,0xBB,0x9C,
   0x59,0x5B,0x6D,0xB5,0xB3,0x7B,0xFB,0xDD,0x55,0xDE,0x7D,0xE6,
   0xFE,0xDE,0xAF,0x6F,0xFB,0xBF,0xFE,0xFE,0xED,0xFF,0xB7,0xFB,
   0xDD,0xFF,0xFF,0xFF,0x02,0x84,0x54,0x82,0x08,0x40,0x3D,0x95,
   0x5A,0x91,0xC6,0x75,0xD6,0xD4,0x5A,0x2B,0xDA,0x4A,0x4B,0xAF,
   0x56,0xA7,0xD4,0xCD,0xAA,0xF7,0x5E,0xFA,0xEF,0x7F,0xED,0xFF,
   0xFF,0xFF,0xFD,0xFF,0xFF,0xEF,0xFF,0xFF};
